<?xml version="1.0" encoding="utf-8"?>
<!-- Generator: Adobe Illustrator 15.1.0, SVG Export Plug-In  -->
<!DOCTYPE svg PUBLIC "-//W3C//DTD SVG 1.1//EN" "http://www.w3.org/Graphics/SVG/1.1/DTD/svg11.dtd" [
	<!ENTITY ns_flows "http://ns.adobe.com/Flows/1.0/">
]>
<svg version="1.1"
	 xmlns="http://www.w3.org/2000/svg" xmlns:xlink="http://www.w3.org/1999/xlink" xmlns:a="http://ns.adobe.com/AdobeSVGViewerExtensions/3.0/"
	 x="0px" y="0px" width="16px" height="16px" viewBox="0 0 16 16" enable-background="new 0 0 16 16" xml:space="preserve">
<defs>
</defs>
<path fill="#787878" d="M13.734,3.775c-1.033-2.56-7.087-3.605-8.367-3.594C5.367,0.193,5.32,0,5.32,0
	C5.138,0.1,4.393,0.381,4.393,0.381C0.435,1.755,0.13,7.521,0.13,7.521L0,7.533c0,0,0.053,0.182,0.165,0.575
	c0.998,3.5,3.652,2.783,6.857,7.892c0.012,0-0.563-2.126,1.327-2.818c1.891-0.693,3.03-0.658,3.958-2.349
	C12.392,10.652,14.284,5.138,13.734,3.775z M9.031,8.66c-0.459,0.184-2.592,0.413-3.089,1.362c-0.094,0.235,0.12,0.639,0.364,0.834
	c0.323,0.258,0.822,0.293,0.764,0.751c-0.294,1.186-1.844,0.693-1.82-0.341C5.191,9.318,9.078,8.085,9.031,7.075
	C9.043,6.911,8.914,6.394,8.15,6.394S6.506,8.085,6.518,8.062C6.471,8.132,6.4,8.073,6.4,8.073L4.287,6.864
	c0,0-0.799-0.587-0.153-2.22c0.121-0.306,0.928-1.773,2.96-1.785c2.031-0.012,3.499,1.033,3.581,3.135
	C10.675,8.226,9.09,8.637,9.031,8.66z"/>
</svg>
