<?xml version="1.0" encoding="UTF-8" standalone="no"?>
<!-- Generator: Adobe Illustrator 15.1.0, SVG Export Plug-In  -->

<svg
   xmlns:dc="http://purl.org/dc/elements/1.1/"
   xmlns:cc="http://creativecommons.org/ns#"
   xmlns:rdf="http://www.w3.org/1999/02/22-rdf-syntax-ns#"
   xmlns:svg="http://www.w3.org/2000/svg"
   xmlns="http://www.w3.org/2000/svg"
   xmlns:sodipodi="http://sodipodi.sourceforge.net/DTD/sodipodi-0.dtd"
   xmlns:inkscape="http://www.inkscape.org/namespaces/inkscape"
   version="1.1"
   x="0px"
   y="0px"
   width="16px"
   height="16px"
   viewBox="0 0 16 16"
   enable-background="new 0 0 16 16"
   xml:space="preserve"
   id="svg6"
   sodipodi:docname="menu-icon.svg"
   inkscape:version="0.92.2 5c3e80d, 2017-08-06"><metadata
     id="metadata10"><rdf:RDF><cc:Work
         rdf:about=""><dc:format>image/svg+xml</dc:format><dc:type
           rdf:resource="http://purl.org/dc/dcmitype/StillImage" /><dc:title></dc:title></cc:Work></rdf:RDF></metadata><sodipodi:namedview
     pagecolor="#ffffff"
     bordercolor="#666666"
     borderopacity="1"
     objecttolerance="10"
     gridtolerance="10"
     guidetolerance="10"
     inkscape:pageopacity="0"
     inkscape:pageshadow="2"
     inkscape:window-width="1336"
     inkscape:window-height="949"
     id="namedview8"
     showgrid="false"
     inkscape:zoom="14.75"
     inkscape:cx="8.1355932"
     inkscape:cy="8"
     inkscape:window-x="869"
     inkscape:window-y="372"
     inkscape:window-maximized="0"
     inkscape:current-layer="svg6" /><defs
     id="defs2" /><path
     fill="#787878"
     d="M13.734,3.775c-1.033-2.56-7.087-3.605-8.367-3.594C5.367,0.193,5.32,0,5.32,0  C5.138,0.1,4.393,0.381,4.393,0.381C0.435,1.755,0.13,7.521,0.13,7.521L0,7.533c0,0,0.053,0.182,0.165,0.575  c0.998,3.5,3.652,2.783,6.857,7.892c0.012,0-0.563-2.126,1.327-2.818c1.891-0.693,3.03-0.658,3.958-2.349  C12.392,10.652,14.284,5.138,13.734,3.775z M9.031,8.66c-0.459,0.184-2.592,0.413-3.089,1.362c-0.094,0.235,0.12,0.639,0.364,0.834  c0.323,0.258,0.822,0.293,0.764,0.751c-0.294,1.186-1.844,0.693-1.82-0.341C5.191,9.318,9.078,8.085,9.031,7.075  C9.043,6.911,8.914,6.394,8.15,6.394S6.506,8.085,6.518,8.062C6.471,8.132,6.4,8.073,6.4,8.073L4.287,6.864  c0,0-0.799-0.587-0.153-2.22c0.121-0.306,0.928-1.773,2.96-1.785c2.031-0.012,3.499,1.033,3.581,3.135  C10.675,8.226,9.09,8.637,9.031,8.66z"
     id="path4"
     style="fill:#bebebe;fill-opacity:1" /></svg>